<svg class="diagram-root" style="background: #f5f6f6" xmlns="http://www.w3.org/2000/svg" xmlns:xlink="http://www.w3.org/1999/xlink"><style>.diagram-root { font-family: "Helvetica Neue", sans-serif; font-size: 12px; } .t { overflow: visible; } .t-bg { y: 40; fill: #fff;   } .th { fill: #005aa0;   } .tht { fill: #fff; font-size: 14px;  } .tf { fill: #323c46; overflow: visible; } .tf.pk { fill: #005aa0; font-weight: bold; } .tf.fk { font-weight: bold; } .ty { fill: #adb1b5; font-weight: normal; text-anchor: end; } .r { fill: transparent; stroke: #c3c3c3; stroke-width: 1; } .l { stroke: 1; } .i { fill: #c2c7ce; stroke: #c2c7ce; } .i.ix { fill: #afb3b6; stroke: #000; } .fa { fill: transparent; overflow: visible; } .fa .bg.hover { fill: #f7f7f7; } .c { cy: 12; r: 4; stroke: #d2d2dc; fill: #d2d2dc; } .hr { fill: transparent; stroke: #323c46; stroke-opacity: 0.035; stroke-width: 13; } .dc { stroke: #fa5a3c; fill: #fa5a3c; } .x { stroke: white; stroke-width: 1; } .hl .th { fill: #1b9bff; } .hl .tht {  } .fhl .bg { fill: #e7f4ff; } .fhls .bg {  } .r.hl { stroke: #1b9bff; } .dim { opacity: 0.25; }</style><g class="drawing-wrapper" transform="translate(19, 30.142857142857203) scale(1,1)"><g class="rs"><path d="M 276 286 m -1, 0 a 1,1 0 1,0 2,0 a 1,1 0 1,0 -2,0 M 276 286 m -0.5, 0 a 0.5,0.5 0 1,0 1,0 a 0.5,0.5 0 1,0 -1,0  M276 286 L276 286 264 286 M 276 292 m -1, 0 a 1,1 0 1,0 2,0 a 1,1 0 1,0 -2,0 M 276 292 m -0.5, 0 a 0.5,0.5 0 1,0 1,0 a 0.5,0.5 0 1,0 -1,0  M276 292 L276 292 269 286 276 280 M 276 280 m -1, 0 a 1,1 0 1,0 2,0 a 1,1 0 1,0 -2,0 M 276 280 m -0.5, 0 a 0.5,0.5 0 1,0 1,0 a 0.5,0.5 0 1,0 -1,0  M264 286 Q 245.04 286, 226.07 285.5 T 188.14 285 M 176.14 285 m -1, 0 a 1,1 0 1,0 2,0 a 1,1 0 1,0 -2,0 M 176.14 285 m -0.5, 0 a 0.5,0.5 0 1,0 1,0 a 0.5,0.5 0 1,0 -1,0  M176.14 285 L176.14 285 188.14 285 M182.14 291 L182.14 291 182.14 279" id="h1537058300" class="r"></path><path d="M 569 263 m -1, 0 a 1,1 0 1,0 2,0 a 1,1 0 1,0 -2,0 M 569 263 m -0.5, 0 a 0.5,0.5 0 1,0 1,0 a 0.5,0.5 0 1,0 -1,0  M569 263 L569 263 557 263 M 569 269 m -1, 0 a 1,1 0 1,0 2,0 a 1,1 0 1,0 -2,0 M 569 269 m -0.5, 0 a 0.5,0.5 0 1,0 1,0 a 0.5,0.5 0 1,0 -1,0  M569 269 L569 269 562 263 569 257 M 569 257 m -1, 0 a 1,1 0 1,0 2,0 a 1,1 0 1,0 -2,0 M 569 257 m -0.5, 0 a 0.5,0.5 0 1,0 1,0 a 0.5,0.5 0 1,0 -1,0  M557 263 Q 535.54 263, 514.08 262 T 471.16 261 M 459.16 261 m -1, 0 a 1,1 0 1,0 2,0 a 1,1 0 1,0 -2,0 M 459.16 261 m -0.5, 0 a 0.5,0.5 0 1,0 1,0 a 0.5,0.5 0 1,0 -1,0  M459.16 261 L459.16 261 471.16 261 M465.16 267 L465.16 267 465.16 255" id="h3177548053" class="r"></path><path d="M 581.43 56.86 m -1, 0 a 1,1 0 1,0 2,0 a 1,1 0 1,0 -2,0 M 581.43 56.86 m -0.5, 0 a 0.5,0.5 0 1,0 1,0 a 0.5,0.5 0 1,0 -1,0  M581.43 56.86 L581.43 56.86 569.43 56.86 M 581.43 62.86 m -1, 0 a 1,1 0 1,0 2,0 a 1,1 0 1,0 -2,0 M 581.43 62.86 m -0.5, 0 a 0.5,0.5 0 1,0 1,0 a 0.5,0.5 0 1,0 -1,0  M581.43 62.86 L581.43 62.86 574.43 56.86 581.43 50.86 M 581.43 50.86 m -1, 0 a 1,1 0 1,0 2,0 a 1,1 0 1,0 -2,0 M 581.43 50.86 m -0.5, 0 a 0.5,0.5 0 1,0 1,0 a 0.5,0.5 0 1,0 -1,0  M569.43 56.86 Q 544.86 56.86, 520.29 158.93 T 471.16 261 M 459.16 261 m -1, 0 a 1,1 0 1,0 2,0 a 1,1 0 1,0 -2,0 M 459.16 261 m -0.5, 0 a 0.5,0.5 0 1,0 1,0 a 0.5,0.5 0 1,0 -1,0  M459.16 261 L459.16 261 471.16 261 M465.16 267 L465.16 267 465.16 255" id="h1139284389" class="r"></path><path d="M 728.59 81.86 m -1, 0 a 1,1 0 1,0 2,0 a 1,1 0 1,0 -2,0 M 728.59 81.86 m -0.5, 0 a 0.5,0.5 0 1,0 1,0 a 0.5,0.5 0 1,0 -1,0  M728.59 81.86 L728.59 81.86 740.59 81.86 M 728.59 87.86 m -1, 0 a 1,1 0 1,0 2,0 a 1,1 0 1,0 -2,0 M 728.59 87.86 m -0.5, 0 a 0.5,0.5 0 1,0 1,0 a 0.5,0.5 0 1,0 -1,0  M728.59 87.86 L728.59 87.86 735.59 81.86 728.59 75.86 M 728.59 75.86 m -1, 0 a 1,1 0 1,0 2,0 a 1,1 0 1,0 -2,0 M 728.59 75.86 m -0.5, 0 a 0.5,0.5 0 1,0 1,0 a 0.5,0.5 0 1,0 -1,0  M740.59 81.86 Q 762.43 81.86, 784.26 165.74 T 827.93 249.61 M 839.93 249.61 m -1, 0 a 1,1 0 1,0 2,0 a 1,1 0 1,0 -2,0 M 839.93 249.61 m -0.5, 0 a 0.5,0.5 0 1,0 1,0 a 0.5,0.5 0 1,0 -1,0  M839.93 249.61 L839.93 249.61 827.93 249.61 M833.93 255.61 L833.93 255.61 833.93 243.61" id="h1607168654" class="r"></path><path d="M 727.01 476.04 m -1, 0 a 1,1 0 1,0 2,0 a 1,1 0 1,0 -2,0 M 727.01 476.04 m -0.5, 0 a 0.5,0.5 0 1,0 1,0 a 0.5,0.5 0 1,0 -1,0  M727.01 476.04 L727.01 476.04 739.01 476.04 M 727.01 482.04 m -1, 0 a 1,1 0 1,0 2,0 a 1,1 0 1,0 -2,0 M 727.01 482.04 m -0.5, 0 a 0.5,0.5 0 1,0 1,0 a 0.5,0.5 0 1,0 -1,0  M727.01 482.04 L727.01 482.04 734.01 476.04 727.01 470.04 M 727.01 470.04 m -1, 0 a 1,1 0 1,0 2,0 a 1,1 0 1,0 -2,0 M 727.01 470.04 m -0.5, 0 a 0.5,0.5 0 1,0 1,0 a 0.5,0.5 0 1,0 -1,0  M739.01 476.04 Q 761.24 476.04, 783.47 362.83 T 827.93 249.61 M 839.93 249.61 m -1, 0 a 1,1 0 1,0 2,0 a 1,1 0 1,0 -2,0 M 839.93 249.61 m -0.5, 0 a 0.5,0.5 0 1,0 1,0 a 0.5,0.5 0 1,0 -1,0  M839.93 249.61 L839.93 249.61 827.93 249.61 M833.93 255.61 L833.93 255.61 833.93 243.61" id="h1397587031" class="r"></path><path d="M 565.18 501.04 m -1, 0 a 1,1 0 1,0 2,0 a 1,1 0 1,0 -2,0 M 565.18 501.04 m -0.5, 0 a 0.5,0.5 0 1,0 1,0 a 0.5,0.5 0 1,0 -1,0  M565.18 501.04 L565.18 501.04 553.18 501.04 M 565.18 507.04 m -1, 0 a 1,1 0 1,0 2,0 a 1,1 0 1,0 -2,0 M 565.18 507.04 m -0.5, 0 a 0.5,0.5 0 1,0 1,0 a 0.5,0.5 0 1,0 -1,0  M565.18 507.04 L565.18 507.04 558.18 501.04 565.18 495.04 M 565.18 495.04 m -1, 0 a 1,1 0 1,0 2,0 a 1,1 0 1,0 -2,0 M 565.18 495.04 m -0.5, 0 a 0.5,0.5 0 1,0 1,0 a 0.5,0.5 0 1,0 -1,0  M553.18 501.04 Q 532.67 501.04, 512.17 381.02 T 471.16 261 M 459.16 261 m -1, 0 a 1,1 0 1,0 2,0 a 1,1 0 1,0 -2,0 M 459.16 261 m -0.5, 0 a 0.5,0.5 0 1,0 1,0 a 0.5,0.5 0 1,0 -1,0  M459.16 261 L459.16 261 471.16 261 M465.16 267 L465.16 267 465.16 255" id="h2286254435" class="r"></path></g><g class="hrs"></g><g class="ts"><svg width="185.17" height="100" x="839.93" y="192.61" id="h475896179" class="t"><rect height="40" width="185.17" class="th"></rect><text x="13" y="25" class="tht">departments</text><rect height="60" width="185.17" class="t-bg"></rect><text x="13" y="61" class="tf pk">dept_no<tspan x="172.17" class="ty">VARCHAR(8)</tspan></text><path d="M7,14A2,2 0 0,1 5,12A2,2 0 0,1 7,10A2,2 0 0,1 9,12A2,2 0 0,1 7,14M12.65,10C11.83,7.67 9.61,6 7, 6A6, 6 0 0, 0 1, 12A6, 6 0 0, 0 7, 18C9.61, 18 11.83, 16.33 12.65, 14H17V18H21V14H23V10H12.65Z" class="i pk" transform="translate(79.71882812499999, 48) scale(0.65)"></path><text x="13" y="86" class="tf">dept_name<tspan x="172.17" class="ty">VARCHAR(40)</tspan></text></svg><svg width="173.14" height="100" x="3" y="228" id="h311790747" class="t"><rect height="40" width="173.14" class="th"></rect><text x="13" y="25" class="tht">titles</text><rect height="60" width="173.14" class="t-bg"></rect><text x="13" y="61" class="tf pk">title_id<tspan x="160.14" class="ty">VARCHAR(8)</tspan></text><path d="M7,14A2,2 0 0,1 5,12A2,2 0 0,1 7,10A2,2 0 0,1 9,12A2,2 0 0,1 7,14M12.65,10C11.83,7.67 9.61,6 7, 6A6, 6 0 0, 0 1, 12A6, 6 0 0, 0 7, 18C9.61, 18 11.83, 16.33 12.65, 14H17V18H21V14H23V10H12.65Z" class="i pk" transform="translate(67.68882812499999, 48) scale(0.65)"></path><text x="13" y="86" class="tf">title<tspan x="160.14" class="ty">VARCHAR(30)</tspan></text></svg><svg width="183.16" height="225" x="276" y="204" id="h1639608377" class="t"><rect height="40" width="183.16" class="th"></rect><text x="13" y="25" class="tht">employees</text><rect height="185" width="183.16" class="t-bg"></rect><text x="13" y="61" class="tf pk">emp_no<tspan x="170.16" class="ty">INT</tspan></text><path d="M7,14A2,2 0 0,1 5,12A2,2 0 0,1 7,10A2,2 0 0,1 9,12A2,2 0 0,1 7,14M12.65,10C11.83,7.67 9.61,6 7, 6A6, 6 0 0, 0 1, 12A6, 6 0 0, 0 7, 18C9.61, 18 11.83, 16.33 12.65, 14H17V18H21V14H23V10H12.65Z" class="i pk" transform="translate(130.829921875, 48) scale(0.65)"></path><text x="13" y="86" class="tf fk">emp_title_id<tspan x="170.16" class="ty">VARCHAR(8)</tspan></text><text x="13" y="111" class="tf">birth_date<tspan x="170.16" class="ty">DATE</tspan></text><text x="13" y="136" class="tf">first_name<tspan x="170.16" class="ty">VARCHAR(20)</tspan></text><text x="13" y="161" class="tf">last_name<tspan x="170.16" class="ty">VARCHAR(20)</tspan></text><text x="13" y="186" class="tf">sex<tspan x="170.16" class="ty">VARCHAR(2)</tspan></text><text x="13" y="211" class="tf">hire_date<tspan x="170.16" class="ty">DATE</tspan></text></svg><svg width="108.7" height="100" x="569" y="206" id="h2472833127" class="t"><rect height="40" width="108.7" class="th"></rect><text x="13" y="25" class="tht">salaries</text><rect height="60" width="108.7" class="t-bg"></rect><text x="13" y="61" class="tf fk">emp_no<tspan x="95.7" class="ty">INT</tspan></text><text x="13" y="86" class="tf">salary<tspan x="95.7" class="ty">INT</tspan></text></svg><svg width="147.16" height="100" x="581.43" y="-0.14" id="h1090417462" class="t"><rect height="40" width="147.16" class="th"></rect><text x="13" y="25" class="tht">dept_emp</text><rect height="60" width="147.16" class="t-bg"></rect><text x="13" y="61" class="tf fk">emp_no<tspan x="134.16" class="ty">INT</tspan></text><text x="13" y="86" class="tf fk">dept_no<tspan x="134.16" class="ty">VARCHAR</tspan></text></svg><svg width="161.83" height="100" x="565.18" y="419.04" id="h1676682957" class="t"><rect height="40" width="161.83" class="th"></rect><text x="13" y="25" class="tht">dept_manager</text><rect height="60" width="161.83" class="t-bg"></rect><text x="13" y="61" class="tf fk">dept_no<tspan x="148.83" class="ty">VARCHAR(8)</tspan></text><text x="13" y="86" class="tf fk">emp_no<tspan x="148.83" class="ty">INT</tspan></text></svg></g></g><text class="qdbd-link" x="10" y="20">www.quickdatabasediagrams.com</text></svg>